<mxfile host="65bd71144e">
    <diagram id="S85H64k8rBTdleAfcEDx" name="Страница 1">
        <mxGraphModel dx="423" dy="677" grid="1" gridSize="10" guides="1" tooltips="1" connect="1" arrows="1" fold="1" page="1" pageScale="1" pageWidth="827" pageHeight="1169" background="#ffffff" math="0" shadow="0">
            <root>
                <mxCell id="0"/>
                <mxCell id="1" parent="0"/>
                <mxCell id="-VK6K67vb2kG3IxbaMsA-10" style="edgeStyle=orthogonalEdgeStyle;rounded=0;orthogonalLoop=1;jettySize=auto;html=1;exitX=0.5;exitY=1;exitDx=0;exitDy=0;entryX=0.5;entryY=0;entryDx=0;entryDy=0;fontSize=15;labelBackgroundColor=none;strokeColor=#000000;fontColor=#000000;" parent="1" source="-VK6K67vb2kG3IxbaMsA-1" target="-VK6K67vb2kG3IxbaMsA-2" edge="1">
                    <mxGeometry relative="1" as="geometry"/>
                </mxCell>
                <mxCell id="-VK6K67vb2kG3IxbaMsA-1" value="start" style="rounded=1;whiteSpace=wrap;html=1;arcSize=50;fontSize=15;fillColor=#d5e8d4;strokeColor=#000000;strokeWidth=3;labelBackgroundColor=none;fontColor=#000000;" parent="1" vertex="1">
                    <mxGeometry x="295" y="30" width="120" height="40" as="geometry"/>
                </mxCell>
                <mxCell id="-VK6K67vb2kG3IxbaMsA-11" style="edgeStyle=orthogonalEdgeStyle;rounded=0;orthogonalLoop=1;jettySize=auto;html=1;exitX=0.5;exitY=1;exitDx=0;exitDy=0;entryX=0.5;entryY=0;entryDx=0;entryDy=0;fontSize=15;labelBackgroundColor=none;strokeColor=#000000;fontColor=#000000;" parent="1" source="-VK6K67vb2kG3IxbaMsA-2" target="-VK6K67vb2kG3IxbaMsA-5" edge="1">
                    <mxGeometry relative="1" as="geometry"/>
                </mxCell>
                <mxCell id="-VK6K67vb2kG3IxbaMsA-2" value="size = ReadLine()" style="shape=parallelogram;perimeter=parallelogramPerimeter;whiteSpace=wrap;html=1;fixedSize=1;fontSize=15;fillColor=#f5f5f5;fontColor=#000000;strokeColor=#000000;strokeWidth=3;labelBackgroundColor=none;" parent="1" vertex="1">
                    <mxGeometry x="260" y="90" width="190" height="60" as="geometry"/>
                </mxCell>
                <mxCell id="-VK6K67vb2kG3IxbaMsA-8" value="No" style="edgeStyle=orthogonalEdgeStyle;rounded=0;orthogonalLoop=1;jettySize=auto;html=1;exitX=0;exitY=0.5;exitDx=0;exitDy=0;entryX=1;entryY=0.5;entryDx=0;entryDy=0;fontSize=11;labelBackgroundColor=none;strokeColor=#000000;fontColor=#000000;" parent="1" source="-VK6K67vb2kG3IxbaMsA-5" target="-VK6K67vb2kG3IxbaMsA-6" edge="1">
                    <mxGeometry x="-0.7143" y="10" relative="1" as="geometry">
                        <mxPoint as="offset"/>
                    </mxGeometry>
                </mxCell>
                <mxCell id="-VK6K67vb2kG3IxbaMsA-14" value="Yes" style="edgeStyle=orthogonalEdgeStyle;rounded=0;orthogonalLoop=1;jettySize=auto;html=1;exitX=0.5;exitY=1;exitDx=0;exitDy=0;entryX=0.5;entryY=0;entryDx=0;entryDy=0;fontSize=11;labelBackgroundColor=none;strokeColor=#000000;fontColor=#000000;" parent="1" source="-VK6K67vb2kG3IxbaMsA-5" target="-VK6K67vb2kG3IxbaMsA-13" edge="1">
                    <mxGeometry relative="1" as="geometry"/>
                </mxCell>
                <mxCell id="-VK6K67vb2kG3IxbaMsA-5" value="if(!isSize)" style="rhombus;whiteSpace=wrap;html=1;fontSize=15;fillColor=#ffe6cc;strokeColor=#000000;strokeWidth=3;labelBackgroundColor=none;fontColor=#000000;" parent="1" vertex="1">
                    <mxGeometry x="295" y="170" width="120" height="80" as="geometry"/>
                </mxCell>
                <mxCell id="-VK6K67vb2kG3IxbaMsA-9" style="edgeStyle=orthogonalEdgeStyle;rounded=0;orthogonalLoop=1;jettySize=auto;html=1;exitX=0;exitY=0.5;exitDx=0;exitDy=0;entryX=1;entryY=0.5;entryDx=0;entryDy=0;fontSize=15;labelBackgroundColor=none;strokeColor=#000000;fontColor=#000000;" parent="1" source="-VK6K67vb2kG3IxbaMsA-6" target="-VK6K67vb2kG3IxbaMsA-7" edge="1">
                    <mxGeometry relative="1" as="geometry"/>
                </mxCell>
                <mxCell id="-VK6K67vb2kG3IxbaMsA-6" value="Ошибка!&lt;br&gt;Вы ввели не число!" style="shape=document;whiteSpace=wrap;html=1;boundedLbl=1;fontSize=15;fillColor=#a20025;fontColor=#000000;strokeColor=#000000;strokeWidth=3;labelBackgroundColor=none;" parent="1" vertex="1">
                    <mxGeometry x="115" y="175" width="150" height="70" as="geometry"/>
                </mxCell>
                <mxCell id="-VK6K67vb2kG3IxbaMsA-7" value="End" style="rounded=1;whiteSpace=wrap;html=1;fontSize=15;arcSize=50;fillColor=#f8cecc;strokeColor=#000000;strokeWidth=3;labelBackgroundColor=none;fontColor=#000000;" parent="1" vertex="1">
                    <mxGeometry x="10" y="195" width="90" height="30" as="geometry"/>
                </mxCell>
                <mxCell id="-VK6K67vb2kG3IxbaMsA-17" style="edgeStyle=orthogonalEdgeStyle;rounded=0;orthogonalLoop=1;jettySize=auto;html=1;exitX=0.5;exitY=1;exitDx=0;exitDy=0;entryX=0.5;entryY=0;entryDx=0;entryDy=0;fontSize=15;labelBackgroundColor=none;strokeColor=#000000;fontColor=#000000;" parent="1" source="-VK6K67vb2kG3IxbaMsA-13" target="-VK6K67vb2kG3IxbaMsA-16" edge="1">
                    <mxGeometry relative="1" as="geometry"/>
                </mxCell>
                <mxCell id="-VK6K67vb2kG3IxbaMsA-13" value="string[ ] arr = new string[size]" style="shape=parallelogram;perimeter=parallelogramPerimeter;whiteSpace=wrap;html=1;fixedSize=1;fontSize=15;fillColor=#f5f5f5;fontColor=#000000;strokeColor=#000000;strokeWidth=3;labelBackgroundColor=none;" parent="1" vertex="1">
                    <mxGeometry x="230" y="280" width="250" height="50" as="geometry"/>
                </mxCell>
                <mxCell id="-VK6K67vb2kG3IxbaMsA-19" style="edgeStyle=orthogonalEdgeStyle;rounded=0;orthogonalLoop=1;jettySize=auto;html=1;exitX=0.5;exitY=1;exitDx=0;exitDy=0;entryX=0.5;entryY=0;entryDx=0;entryDy=0;fontSize=15;labelBackgroundColor=none;strokeColor=#000000;fontColor=#000000;" parent="1" source="-VK6K67vb2kG3IxbaMsA-16" target="-VK6K67vb2kG3IxbaMsA-18" edge="1">
                    <mxGeometry relative="1" as="geometry"/>
                </mxCell>
                <mxCell id="-VK6K67vb2kG3IxbaMsA-16" value="int i = 0" style="rounded=0;whiteSpace=wrap;html=1;fontSize=15;fillColor=#dae8fc;strokeColor=#000000;strokeWidth=3;labelBackgroundColor=none;fontColor=#000000;" parent="1" vertex="1">
                    <mxGeometry x="295" y="350" width="120" height="40" as="geometry"/>
                </mxCell>
                <mxCell id="-VK6K67vb2kG3IxbaMsA-21" value="Yes" style="edgeStyle=orthogonalEdgeStyle;rounded=0;orthogonalLoop=1;jettySize=auto;html=1;exitX=0.5;exitY=1;exitDx=0;exitDy=0;entryX=0.5;entryY=0;entryDx=0;entryDy=0;fontSize=11;labelBackgroundColor=none;strokeColor=#000000;fontColor=#000000;" parent="1" source="-VK6K67vb2kG3IxbaMsA-18" target="-VK6K67vb2kG3IxbaMsA-68" edge="1">
                    <mxGeometry x="-0.4286" relative="1" as="geometry">
                        <mxPoint x="355" y="520" as="targetPoint"/>
                        <mxPoint as="offset"/>
                    </mxGeometry>
                </mxCell>
                <mxCell id="-VK6K67vb2kG3IxbaMsA-27" value="No" style="edgeStyle=orthogonalEdgeStyle;rounded=0;orthogonalLoop=1;jettySize=auto;html=1;exitX=1;exitY=0.5;exitDx=0;exitDy=0;entryX=1;entryY=0.5;entryDx=0;entryDy=0;fontSize=11;labelBackgroundColor=none;strokeColor=#000000;fontColor=#000000;" parent="1" source="-VK6K67vb2kG3IxbaMsA-18" target="-VK6K67vb2kG3IxbaMsA-28" edge="1">
                    <mxGeometry relative="1" as="geometry">
                        <mxPoint x="510" y="500" as="targetPoint"/>
                        <Array as="points">
                            <mxPoint x="470" y="450"/>
                            <mxPoint x="470" y="590"/>
                        </Array>
                    </mxGeometry>
                </mxCell>
                <mxCell id="-VK6K67vb2kG3IxbaMsA-18" value="i &amp;lt; arr.Length" style="rhombus;whiteSpace=wrap;html=1;fontSize=15;fillColor=#ffe6cc;strokeColor=#000000;strokeWidth=3;labelBackgroundColor=none;fontColor=#000000;" parent="1" vertex="1">
                    <mxGeometry x="285" y="410" width="140" height="80" as="geometry"/>
                </mxCell>
                <mxCell id="-VK6K67vb2kG3IxbaMsA-23" style="edgeStyle=orthogonalEdgeStyle;rounded=0;orthogonalLoop=1;jettySize=auto;html=1;exitX=0;exitY=0.5;exitDx=0;exitDy=0;entryX=1;entryY=0.5;entryDx=0;entryDy=0;fontSize=15;labelBackgroundColor=none;strokeColor=#000000;fontColor=#000000;" parent="1" source="-VK6K67vb2kG3IxbaMsA-68" target="-VK6K67vb2kG3IxbaMsA-22" edge="1">
                    <mxGeometry relative="1" as="geometry">
                        <mxPoint x="275" y="540" as="sourcePoint"/>
                    </mxGeometry>
                </mxCell>
                <mxCell id="-VK6K67vb2kG3IxbaMsA-24" style="edgeStyle=orthogonalEdgeStyle;rounded=0;orthogonalLoop=1;jettySize=auto;html=1;exitX=0.5;exitY=0;exitDx=0;exitDy=0;entryX=0;entryY=0.5;entryDx=0;entryDy=0;fontSize=15;labelBackgroundColor=none;strokeColor=#000000;fontColor=#000000;" parent="1" source="-VK6K67vb2kG3IxbaMsA-22" target="-VK6K67vb2kG3IxbaMsA-18" edge="1">
                    <mxGeometry relative="1" as="geometry"/>
                </mxCell>
                <mxCell id="-VK6K67vb2kG3IxbaMsA-22" value="i ++" style="rounded=0;whiteSpace=wrap;html=1;fontSize=15;fillColor=#dae8fc;strokeColor=#000000;strokeWidth=3;labelBackgroundColor=none;fontColor=#000000;" parent="1" vertex="1">
                    <mxGeometry x="160" y="522.5" width="80" height="25" as="geometry"/>
                </mxCell>
                <mxCell id="-VK6K67vb2kG3IxbaMsA-69" style="edgeStyle=orthogonalEdgeStyle;rounded=0;orthogonalLoop=1;jettySize=auto;html=1;exitX=0.5;exitY=1;exitDx=0;exitDy=0;entryX=0.5;entryY=0;entryDx=0;entryDy=0;fontSize=15;labelBackgroundColor=none;strokeColor=#000000;fontColor=#000000;" parent="1" source="-VK6K67vb2kG3IxbaMsA-28" target="-VK6K67vb2kG3IxbaMsA-35" edge="1">
                    <mxGeometry relative="1" as="geometry"/>
                </mxCell>
                <mxCell id="-VK6K67vb2kG3IxbaMsA-28" value="string[ ] arr&lt;br&gt;count = 0" style="rounded=0;whiteSpace=wrap;html=1;fontSize=15;fillColor=#dae8fc;strokeColor=#000000;strokeWidth=3;labelBackgroundColor=none;fontColor=#000000;" parent="1" vertex="1">
                    <mxGeometry x="295" y="570" width="120" height="40" as="geometry"/>
                </mxCell>
                <mxCell id="-VK6K67vb2kG3IxbaMsA-34" value="&lt;font style=&quot;font-size: 11px;&quot;&gt;Yes&lt;/font&gt;" style="edgeStyle=orthogonalEdgeStyle;rounded=0;orthogonalLoop=1;jettySize=auto;html=1;exitX=0.5;exitY=1;exitDx=0;exitDy=0;entryX=0.5;entryY=0;entryDx=0;entryDy=0;fontSize=15;labelBackgroundColor=none;strokeColor=#000000;fontColor=#000000;" parent="1" source="-VK6K67vb2kG3IxbaMsA-32" target="-VK6K67vb2kG3IxbaMsA-33" edge="1">
                    <mxGeometry relative="1" as="geometry"/>
                </mxCell>
                <mxCell id="-VK6K67vb2kG3IxbaMsA-43" value="No" style="edgeStyle=orthogonalEdgeStyle;rounded=0;orthogonalLoop=1;jettySize=auto;html=1;exitX=1;exitY=0.5;exitDx=0;exitDy=0;entryX=0;entryY=0.5;entryDx=0;entryDy=0;fontSize=11;labelBackgroundColor=none;strokeColor=#000000;fontColor=#000000;" parent="1" source="-VK6K67vb2kG3IxbaMsA-32" target="-VK6K67vb2kG3IxbaMsA-44" edge="1">
                    <mxGeometry relative="1" as="geometry">
                        <mxPoint x="510" y="830" as="targetPoint"/>
                    </mxGeometry>
                </mxCell>
                <mxCell id="-VK6K67vb2kG3IxbaMsA-32" value="j &amp;lt; arr.Length" style="rhombus;whiteSpace=wrap;html=1;fontSize=15;fillColor=#ffe6cc;strokeColor=#000000;strokeWidth=3;labelBackgroundColor=none;fontColor=#000000;" parent="1" vertex="1">
                    <mxGeometry x="290" y="700" width="130" height="80" as="geometry"/>
                </mxCell>
                <mxCell id="-VK6K67vb2kG3IxbaMsA-40" value="Yes" style="edgeStyle=orthogonalEdgeStyle;rounded=0;orthogonalLoop=1;jettySize=auto;html=1;exitX=0;exitY=0.5;exitDx=0;exitDy=0;entryX=1;entryY=0.5;entryDx=0;entryDy=0;fontSize=11;labelBackgroundColor=none;strokeColor=#000000;fontColor=#000000;" parent="1" source="-VK6K67vb2kG3IxbaMsA-33" target="-VK6K67vb2kG3IxbaMsA-39" edge="1">
                    <mxGeometry x="-0.9394" y="-10" relative="1" as="geometry">
                        <mxPoint as="offset"/>
                    </mxGeometry>
                </mxCell>
                <mxCell id="-VK6K67vb2kG3IxbaMsA-57" value="No" style="edgeStyle=orthogonalEdgeStyle;rounded=0;orthogonalLoop=1;jettySize=auto;html=1;exitX=0.5;exitY=1;exitDx=0;exitDy=0;fontSize=11;labelBackgroundColor=none;strokeColor=#000000;fontColor=#000000;" parent="1" source="-VK6K67vb2kG3IxbaMsA-33" edge="1">
                    <mxGeometry x="-0.3704" relative="1" as="geometry">
                        <mxPoint x="160" y="740" as="targetPoint"/>
                        <Array as="points">
                            <mxPoint x="355" y="870"/>
                            <mxPoint x="110" y="870"/>
                            <mxPoint x="110" y="740"/>
                        </Array>
                        <mxPoint as="offset"/>
                    </mxGeometry>
                </mxCell>
                <mxCell id="-VK6K67vb2kG3IxbaMsA-33" value="arr[j].Length &amp;lt;= WordLength&amp;nbsp;" style="rhombus;whiteSpace=wrap;html=1;fontSize=15;fillColor=#ffe6cc;strokeColor=#000000;strokeWidth=3;labelBackgroundColor=none;fontColor=#000000;" parent="1" vertex="1">
                    <mxGeometry x="221.25" y="805" width="267.5" height="50" as="geometry"/>
                </mxCell>
                <mxCell id="-VK6K67vb2kG3IxbaMsA-37" style="edgeStyle=orthogonalEdgeStyle;rounded=0;orthogonalLoop=1;jettySize=auto;html=1;exitX=0.5;exitY=1;exitDx=0;exitDy=0;entryX=0.5;entryY=0;entryDx=0;entryDy=0;fontSize=15;labelBackgroundColor=none;strokeColor=#000000;fontColor=#000000;" parent="1" source="-VK6K67vb2kG3IxbaMsA-35" target="-VK6K67vb2kG3IxbaMsA-32" edge="1">
                    <mxGeometry relative="1" as="geometry"/>
                </mxCell>
                <mxCell id="-VK6K67vb2kG3IxbaMsA-35" value="WordLength = ReadLine()" style="shape=parallelogram;perimeter=parallelogramPerimeter;whiteSpace=wrap;html=1;fixedSize=1;fontSize=15;fillColor=#f5f5f5;fontColor=#000000;strokeColor=#000000;strokeWidth=3;labelBackgroundColor=none;" parent="1" vertex="1">
                    <mxGeometry x="235" y="640" width="240" height="40" as="geometry"/>
                </mxCell>
                <mxCell id="-VK6K67vb2kG3IxbaMsA-41" style="edgeStyle=orthogonalEdgeStyle;rounded=0;orthogonalLoop=1;jettySize=auto;html=1;exitX=0.5;exitY=0;exitDx=0;exitDy=0;entryX=0;entryY=0.5;entryDx=0;entryDy=0;fontSize=15;labelBackgroundColor=none;strokeColor=#000000;fontColor=#000000;" parent="1" source="-VK6K67vb2kG3IxbaMsA-39" target="-VK6K67vb2kG3IxbaMsA-32" edge="1">
                    <mxGeometry relative="1" as="geometry"/>
                </mxCell>
                <mxCell id="-VK6K67vb2kG3IxbaMsA-39" value="count++" style="rounded=0;whiteSpace=wrap;html=1;fontSize=15;fillColor=#dae8fc;strokeColor=#000000;strokeWidth=3;labelBackgroundColor=none;fontColor=#000000;" parent="1" vertex="1">
                    <mxGeometry x="120" y="810" width="80" height="40" as="geometry"/>
                </mxCell>
                <mxCell id="-VK6K67vb2kG3IxbaMsA-48" style="edgeStyle=orthogonalEdgeStyle;rounded=0;orthogonalLoop=1;jettySize=auto;html=1;exitX=0.5;exitY=1;exitDx=0;exitDy=0;entryX=0.5;entryY=0;entryDx=0;entryDy=0;fontSize=15;labelBackgroundColor=none;strokeColor=#000000;fontColor=#000000;" parent="1" source="-VK6K67vb2kG3IxbaMsA-44" target="-VK6K67vb2kG3IxbaMsA-45" edge="1">
                    <mxGeometry relative="1" as="geometry">
                        <mxPoint x="651.8699999999999" y="870" as="targetPoint"/>
                    </mxGeometry>
                </mxCell>
                <mxCell id="-VK6K67vb2kG3IxbaMsA-44" value="string[ ] newArr = new string[count];&lt;br&gt;int q = 0" style="rounded=0;whiteSpace=wrap;html=1;fontSize=15;fillColor=#dae8fc;strokeColor=#000000;strokeWidth=3;labelBackgroundColor=none;fontColor=#000000;" parent="1" vertex="1">
                    <mxGeometry x="510" y="715" width="256.25" height="50" as="geometry"/>
                </mxCell>
                <mxCell id="-VK6K67vb2kG3IxbaMsA-51" value="Yes" style="edgeStyle=orthogonalEdgeStyle;rounded=0;orthogonalLoop=1;jettySize=auto;html=1;exitX=0.5;exitY=1;exitDx=0;exitDy=0;entryX=0.5;entryY=0;entryDx=0;entryDy=0;fontSize=11;labelBackgroundColor=none;strokeColor=#000000;fontColor=#000000;" parent="1" source="-VK6K67vb2kG3IxbaMsA-45" target="-VK6K67vb2kG3IxbaMsA-50" edge="1">
                    <mxGeometry relative="1" as="geometry"/>
                </mxCell>
                <mxCell id="-VK6K67vb2kG3IxbaMsA-64" style="edgeStyle=orthogonalEdgeStyle;rounded=0;orthogonalLoop=1;jettySize=auto;html=1;exitX=0;exitY=0.5;exitDx=0;exitDy=0;entryX=1;entryY=0.5;entryDx=0;entryDy=0;fontSize=15;labelBackgroundColor=none;strokeColor=#000000;fontColor=#000000;" parent="1" source="-VK6K67vb2kG3IxbaMsA-45" target="-VK6K67vb2kG3IxbaMsA-61" edge="1">
                    <mxGeometry relative="1" as="geometry"/>
                </mxCell>
                <mxCell id="-VK6K67vb2kG3IxbaMsA-45" value="k &amp;lt; arr.Length" style="rhombus;whiteSpace=wrap;html=1;fontSize=15;fillColor=#ffe6cc;strokeColor=#000000;strokeWidth=3;labelBackgroundColor=none;fontColor=#000000;" parent="1" vertex="1">
                    <mxGeometry x="561.5600000000001" y="790" width="153.12" height="40" as="geometry"/>
                </mxCell>
                <mxCell id="-VK6K67vb2kG3IxbaMsA-56" value="Yes" style="edgeStyle=orthogonalEdgeStyle;rounded=0;orthogonalLoop=1;jettySize=auto;html=1;exitX=0.5;exitY=1;exitDx=0;exitDy=0;entryX=0.5;entryY=0;entryDx=0;entryDy=0;fontSize=11;labelBackgroundColor=none;strokeColor=#000000;fontColor=#000000;" parent="1" source="-VK6K67vb2kG3IxbaMsA-50" target="-VK6K67vb2kG3IxbaMsA-52" edge="1">
                    <mxGeometry relative="1" as="geometry"/>
                </mxCell>
                <mxCell id="-VK6K67vb2kG3IxbaMsA-60" value="No" style="edgeStyle=orthogonalEdgeStyle;rounded=0;orthogonalLoop=1;jettySize=auto;html=1;exitX=1;exitY=0.5;exitDx=0;exitDy=0;fontSize=11;labelBackgroundColor=none;strokeColor=#000000;fontColor=#000000;" parent="1" source="-VK6K67vb2kG3IxbaMsA-50" edge="1">
                    <mxGeometry relative="1" as="geometry">
                        <mxPoint x="780" y="810" as="targetPoint"/>
                        <Array as="points">
                            <mxPoint x="780" y="885"/>
                            <mxPoint x="780" y="810"/>
                        </Array>
                    </mxGeometry>
                </mxCell>
                <mxCell id="-VK6K67vb2kG3IxbaMsA-50" value="arr[k].Length &amp;lt;= WordLength&amp;nbsp;" style="rhombus;whiteSpace=wrap;html=1;fontSize=15;fillColor=#ffe6cc;strokeColor=#000000;strokeWidth=3;labelBackgroundColor=none;fontColor=#000000;" parent="1" vertex="1">
                    <mxGeometry x="504.37" y="860" width="267.5" height="50" as="geometry"/>
                </mxCell>
                <mxCell id="-VK6K67vb2kG3IxbaMsA-58" style="edgeStyle=orthogonalEdgeStyle;rounded=0;orthogonalLoop=1;jettySize=auto;html=1;exitX=1;exitY=0.5;exitDx=0;exitDy=0;entryX=0;entryY=0.5;entryDx=0;entryDy=0;fontSize=11;labelBackgroundColor=none;strokeColor=#000000;fontColor=#000000;" parent="1" source="-VK6K67vb2kG3IxbaMsA-52" target="-VK6K67vb2kG3IxbaMsA-53" edge="1">
                    <mxGeometry relative="1" as="geometry"/>
                </mxCell>
                <mxCell id="-VK6K67vb2kG3IxbaMsA-52" value="newArr[q] = arr[k]" style="rounded=0;whiteSpace=wrap;html=1;fontSize=15;fillColor=#dae8fc;strokeColor=#000000;strokeWidth=3;labelBackgroundColor=none;fontColor=#000000;" parent="1" vertex="1">
                    <mxGeometry x="541.56" y="940" width="193.12" height="40" as="geometry"/>
                </mxCell>
                <mxCell id="-VK6K67vb2kG3IxbaMsA-59" style="edgeStyle=orthogonalEdgeStyle;rounded=0;orthogonalLoop=1;jettySize=auto;html=1;exitX=0.5;exitY=0;exitDx=0;exitDy=0;entryX=1;entryY=0.5;entryDx=0;entryDy=0;fontSize=11;labelBackgroundColor=none;strokeColor=#000000;fontColor=#000000;" parent="1" source="-VK6K67vb2kG3IxbaMsA-53" target="-VK6K67vb2kG3IxbaMsA-45" edge="1">
                    <mxGeometry relative="1" as="geometry"/>
                </mxCell>
                <mxCell id="-VK6K67vb2kG3IxbaMsA-53" value="q++" style="rounded=0;whiteSpace=wrap;html=1;fontSize=15;fillColor=#dae8fc;strokeColor=#000000;strokeWidth=3;labelBackgroundColor=none;fontColor=#000000;" parent="1" vertex="1">
                    <mxGeometry x="760" y="945" width="60" height="30" as="geometry"/>
                </mxCell>
                <mxCell id="-VK6K67vb2kG3IxbaMsA-67" style="edgeStyle=orthogonalEdgeStyle;rounded=0;orthogonalLoop=1;jettySize=auto;html=1;exitX=0;exitY=0.5;exitDx=0;exitDy=0;entryX=0.5;entryY=1;entryDx=0;entryDy=0;fontSize=15;labelBackgroundColor=none;strokeColor=#000000;fontColor=#000000;" parent="1" source="-VK6K67vb2kG3IxbaMsA-61" target="-VK6K67vb2kG3IxbaMsA-7" edge="1">
                    <mxGeometry relative="1" as="geometry"/>
                </mxCell>
                <mxCell id="-VK6K67vb2kG3IxbaMsA-61" value="Print string[ ] newArr" style="shape=document;whiteSpace=wrap;html=1;boundedLbl=1;fontSize=15;fillColor=#60a917;fontColor=#000000;strokeColor=#000000;strokeWidth=3;labelBackgroundColor=none;" parent="1" vertex="1">
                    <mxGeometry x="265" y="890" width="170" height="50" as="geometry"/>
                </mxCell>
                <mxCell id="-VK6K67vb2kG3IxbaMsA-68" value="&lt;span style=&quot;font-family: Helvetica; font-size: 15px; font-style: normal; font-variant-ligatures: normal; font-variant-caps: normal; font-weight: 400; letter-spacing: normal; orphans: 2; text-align: center; text-indent: 0px; text-transform: none; widows: 2; word-spacing: 0px; -webkit-text-stroke-width: 0px; text-decoration-thickness: initial; text-decoration-style: initial; text-decoration-color: initial; float: none; display: inline !important;&quot;&gt;arr[i] = ReadLine()&lt;/span&gt;" style="shape=parallelogram;perimeter=parallelogramPerimeter;whiteSpace=wrap;html=1;fixedSize=1;fontSize=15;fillColor=#f5f5f5;fontColor=#000000;strokeColor=#000000;strokeWidth=3;labelBackgroundColor=none;" parent="1" vertex="1">
                    <mxGeometry x="265" y="520" width="180" height="30" as="geometry"/>
                </mxCell>
            </root>
        </mxGraphModel>
    </diagram>
</mxfile>
